<svg xmlns="http://www.w3.org/2000/svg" id="logo_art" data-name="logo art" width="337.578" height="337.578">
  <defs id="defs3842">
    <style id="style3840">
      .cls-1{fill:#eb2624}.cls-2{fill:#c13524}.cls-3{fill:#ff6f89}
    </style>
  </defs>
  <g id="g44" transform="translate(-124.209 -110.715)">
    <path id="path46" class="cls-1" d="M461.17 301.83l-18.91-58.12-37.42-115.28a6.47 6.47 0 0 0-12.27 0l-37.42 115.21H230.82L193.4 128.43a6.46 6.46 0 0 0-12.26 0l-37.36 115.21-18.91 58.19a12.88 12.88 0 0 0 4.66 14.39L293 435l163.44-118.78a12.9 12.9 0 0 0 4.73-14.39" fill="#eb2624"/>
  </g>
  <g id="g48" transform="translate(-124.209 -110.715)">
    <path id="path50" class="cls-2" d="M293 434.91l62.16-191.28H230.87z" fill="#c13524"/>
  </g>
  <g id="g56" transform="translate(-124.209 -110.715)">
    <path id="path58" class="cls-1" d="M293 434.91l-62.18-191.28h-87z" fill="#eb2624"/>
  </g>
  <g id="g64" transform="translate(-124.209 -110.715)">
    <path id="path66" class="cls-3" d="M143.75 243.69l-18.91 58.12a12.88 12.88 0 0 0 4.66 14.39L293 435z" fill="#ff6f89"/>
  </g>
  <g id="g72" transform="translate(-124.209 -110.715)">
    <path id="path74" class="cls-2" d="M143.78 243.69h87.11l-37.49-115.2a6.47 6.47 0 0 0-12.27 0z" fill="#c13524"/>
  </g>
  <g id="g76" transform="translate(-124.209 -110.715)">
    <path id="path78" class="cls-1" d="M293 434.91l62.16-191.28h87.14z" fill="#eb2624"/>
  </g>
  <g id="g80" transform="translate(-124.209 -110.715)">
    <path id="path82" class="cls-3" d="M442.24 243.69l18.91 58.12a12.85 12.85 0 0 1-4.66 14.39L293 434.91l149.2-191.22z" fill="#ff6f89"/>
  </g>
  <g id="g84" transform="translate(-124.209 -110.715)">
    <path id="path86" class="cls-2" d="M442.28 243.69h-87.1l37.42-115.2a6.46 6.46 0 0 1 12.26 0z" fill="#c13524"/>
  </g>
</svg>